<?xml version="1.0" encoding="UTF-8"?><svg xmlns="http://www.w3.org/2000/svg" viewBox="0 0 254.38 392.39"><g id="a"/><g id="b"><g id="c"><path d="M106.11,283.44v108.95C47.51,392.39,0,344.88,0,286.28V152.08c0-27.05,4.63-50.12,13.9-69.23,11.73-24.4,29.55-44.3,53.48-59.72C91.31,7.71,116.23,0,142.15,0l11.35,.28V111.5c-5.02-.65-17.88-1.59-29.27,6.38-.83,.58-4,2.77-7.19,6.67-7.28,8.89-10.92,21.56-10.92,38.02v120.87Z" fill="#b000ea"/><circle cx="195.38" cy="225.65" r="59" fill="#1cea88"/><path d="M179.38,.65V112.65c35.5,4.34,66-23.72,66-56S214.87-3.69,179.38,.65Z"/></g></g></svg>