<svg xmlns="http://www.w3.org/2000/svg" viewBox="0 0 46.9 46.9"><g id="Layer_2" data-name="Layer 2"><g id="OBJECTS"><path d="M23.45,46.68h0A23.23,23.23,0,0,1,.22,23.45h0A23.23,23.23,0,0,1,23.45.22h0A23.23,23.23,0,0,1,46.68,23.45h0A23.23,23.23,0,0,1,23.45,46.68Z" fill="none" stroke="#fbfbf6" stroke-miterlimit="10" stroke-width="0.43"/><path d="M10.8,18.18l6.32,4,6.33-4-6.32-4Z" fill="#fbfbf6"/><path d="M23.44,18.18l6.33,4,6.33-4-6.33-4Z" fill="#fbfbf6"/><path d="M10.8,26.19l6.33,4,6.32-4-6.32-4Z" fill="#fbfbf6"/><path d="M29.77,22.15l-6.33,4,6.33,4,6.33-4Z" fill="#fbfbf6"/><path d="M17.17,31.55l6.32,4,6.33-4-6.33-4Z" fill="#fbfbf6"/></g></g></svg>