<svg xmlns="http://www.w3.org/2000/svg" viewBox="0 0 46.9 46.9"><g id="Layer_2" data-name="Layer 2"><g id="OBJECTS"><path d="M23.45,46.68h0A23.23,23.23,0,0,1,.22,23.45h0A23.23,23.23,0,0,1,23.45.22h0A23.23,23.23,0,0,1,46.68,23.45h0A23.23,23.23,0,0,1,23.45,46.68Z" fill="none" stroke="#fbfbf6" stroke-miterlimit="10" stroke-width="0.43"/><path d="M12.47,31.28A12.81,12.81,0,0,0,32.18,19.91a9,9,0,0,0,2.24-2.33,9,9,0,0,1-2.58.71,4.54,4.54,0,0,0,2-2.49A9.17,9.17,0,0,1,31,16.89,4.51,4.51,0,0,0,23.28,21,12.78,12.78,0,0,1,14,16.29a4.51,4.51,0,0,0,1.39,6,4.45,4.45,0,0,1-2-.56A4.51,4.51,0,0,0,17,26.21a4.5,4.5,0,0,1-2,.08,4.53,4.53,0,0,0,4.21,3.13A9.08,9.08,0,0,1,12.47,31.28Z" fill="#fbfbf6"/></g></g></svg>