<svg xmlns="http://www.w3.org/2000/svg" viewBox="0 0 46.9 46.9"><g id="Layer_2" data-name="Layer 2"><g id="OBJECTS"><path d="M23.45,46.68h0A23.23,23.23,0,0,1,.22,23.45h0A23.23,23.23,0,0,1,23.45.22h0A23.23,23.23,0,0,1,46.68,23.45h0A23.23,23.23,0,0,1,23.45,46.68Z" fill="none" stroke="#fbfbf6" stroke-miterlimit="10" stroke-width="0.43"/><path d="M20.31,35.9h5V23.34h3.5l.37-4.2H25.32v-2.4c0-1,.2-1.38,1.16-1.38h2.71V11H25.72c-3.73,0-5.41,1.64-5.41,4.79v3.35H17.7v4.25h2.61Z" fill="#fbfbf6"/></g></g></svg>